<svg width="25" height="25" viewBox="0 0 25 25" fill="none" xmlns="http://www.w3.org/2000/svg">
<circle cx="12.5" cy="12.5" r="12.5" fill="#89D2C7"/>
<path d="M21.25 14.4977L19.2947 10.5868L17.3393 14.4977H18.6563C17.8273 17.0858 15.4026 18.9671 12.5419 18.9671C8.99944 18.9671 6.11701 16.0848 6.11701 12.5422C6.11701 8.99973 8.99944 6.11731 12.5419 6.11731C15.2715 6.11731 17.6034 7.83127 18.532 10.2377L19.1741 8.95327C17.8966 6.60069 15.4032 5 12.5424 5C8.38365 4.9999 5 8.38335 5 12.5422C5 16.7008 8.38365 20.0845 12.5423 20.0845C16.0245 20.0845 18.9565 17.7106 19.8206 14.4978L21.25 14.4977Z" fill="#2D6974"/>
<path d="M8.53809 14.0472H9.24441L9.45878 13.2746H10.3207L10.5533 14.0472H11.2856L10.3521 11.0369H9.45878L8.53809 14.0472ZM9.73536 12.1267C9.78452 11.9523 9.82919 11.7244 9.87396 11.5461H9.88273C9.9275 11.7244 9.98124 11.9485 10.035 12.1267L10.2226 12.7661H9.55709L9.73536 12.1267Z" fill="#2D6974"/>
<path d="M13.1498 11.5683C13.4799 11.5683 13.6853 11.6264 13.8506 11.6973L13.9938 11.1523C13.8463 11.081 13.5469 11.0048 13.1586 11.0048C12.1714 11.0048 11.4436 11.5762 11.4383 12.577C11.4341 13.0191 11.5859 13.4118 11.8631 13.6716C12.1401 13.9396 12.5374 14.078 13.0872 14.078C13.484 14.078 13.8823 13.9798 14.0917 13.9084V12.3228H12.9709V12.8543H13.436V13.4838C13.382 13.5111 13.2568 13.5285 13.1005 13.5285C12.5418 13.5285 12.1536 13.1619 12.1536 12.541C12.1536 11.8896 12.582 11.5683 13.1498 11.5683Z" fill="#2D6974"/>
<path d="M16.4841 11.5955V11.0374H14.626V14.0472H16.5468V13.4895H15.3095V12.7748H16.4175V12.2205H15.3095V11.5955H16.4841Z" fill="#2D6974"/>
</svg>
