<svg width="25" height="25" viewBox="0 0 25 25" fill="none" xmlns="http://www.w3.org/2000/svg">
<circle cx="12.5" cy="12.5" r="12.5" fill="#89D2C7"/>
<path fill-rule="evenodd" clip-rule="evenodd" d="M14.7376 8.08294C14.7367 9.09415 13.9164 9.91326 12.9052 9.91267C11.894 9.91207 11.0746 9.09201 11.075 8.0808C11.0753 7.06959 11.8951 6.25 12.9063 6.25C13.3922 6.25022 13.8581 6.44344 14.2016 6.78719C14.545 7.13093 14.7378 7.59703 14.7376 8.08294Z" stroke="#2D6974" stroke-width="1.3" stroke-linecap="round" stroke-linejoin="round"/>
<path fill-rule="evenodd" clip-rule="evenodd" d="M14.7964 12.6135H11.0196C9.70006 12.655 8.65186 13.7366 8.65186 15.0568C8.65186 16.377 9.70006 17.4586 11.0196 17.5H14.7964C16.1158 17.4586 17.164 16.377 17.164 15.0568C17.164 13.7366 16.1158 12.655 14.7964 12.6135Z" stroke="#2D6974" stroke-width="1.3" stroke-linecap="round" stroke-linejoin="round"/>
<path fill-rule="evenodd" clip-rule="evenodd" d="M19.3694 9.48358C19.3689 10.257 18.7416 10.8837 17.9682 10.8834C17.1947 10.8831 16.568 10.2559 16.5681 9.48251C16.5683 8.70907 17.1953 8.08215 17.9687 8.08215C18.3403 8.08215 18.6967 8.22983 18.9594 8.49267C19.2221 8.75551 19.3695 9.11197 19.3694 9.48358Z" stroke="#2D6974" stroke-width="1.3" stroke-linecap="round" stroke-linejoin="round"/>
<path fill-rule="evenodd" clip-rule="evenodd" d="M6.22803 9.48351C6.22803 10.257 6.85511 10.8841 7.62865 10.8841C8.40219 10.8841 9.02927 10.257 9.02927 9.48351C9.02927 8.70996 8.40219 8.08289 7.62865 8.08289C6.85511 8.08289 6.22803 8.70996 6.22803 9.48351Z" stroke="#2D6974" stroke-width="1.3" stroke-linecap="round" stroke-linejoin="round"/>
<path d="M18.3644 12.5492C18.0315 12.5492 17.7617 12.819 17.7617 13.1519C17.7617 13.4847 18.0315 13.7545 18.3644 13.7545V12.5492ZM19.4146 13.1519L19.4271 12.5494C19.4229 12.5492 19.4188 12.5492 19.4146 12.5492V13.1519ZM19.4146 16.8893V17.4919C19.4188 17.4919 19.4229 17.4919 19.4271 17.4918L19.4146 16.8893ZM18.3644 16.2866C18.0315 16.2866 17.7617 16.5564 17.7617 16.8893C17.7617 17.2221 18.0315 17.4919 18.3644 17.4919V16.2866ZM7.23329 13.7545C7.56614 13.7545 7.83596 13.4847 7.83596 13.1519C7.83596 12.819 7.56614 12.5492 7.23329 12.5492V13.7545ZM6.18302 13.1519V12.5492C6.17886 12.5492 6.1747 12.5492 6.17053 12.5494L6.18302 13.1519ZM6.18302 16.8893L6.17053 17.4918C6.1747 17.4919 6.17886 17.4919 6.18302 17.4919V16.8893ZM7.23329 17.4919C7.56614 17.4919 7.83596 17.2221 7.83596 16.8893C7.83596 16.5564 7.56614 16.2866 7.23329 16.2866V17.4919ZM18.3644 13.7545H19.4146V12.5492H18.3644V13.7545ZM19.4021 13.7544C20.0911 13.7687 20.6422 14.3314 20.6422 15.0206H21.8476C21.8476 13.6754 20.7719 12.5772 19.4271 12.5494L19.4021 13.7544ZM20.6422 15.0206C20.6422 15.7098 20.0911 16.2725 19.4021 16.2868L19.4271 17.4918C20.7719 17.4639 21.8476 16.3657 21.8476 15.0206H20.6422ZM19.4146 16.2866H18.3644V17.4919H19.4146V16.2866ZM7.23329 12.5492H6.18302V13.7545H7.23329V12.5492ZM6.17053 12.5494C4.82567 12.5772 3.75 13.6754 3.75 15.0206H4.95535C4.95535 14.3314 5.50647 13.7687 6.19552 13.7544L6.17053 12.5494ZM3.75 15.0206C3.75 16.3657 4.82567 17.4639 6.17053 17.4918L6.19552 16.2868C5.50647 16.2725 4.95535 15.7098 4.95535 15.0206H3.75ZM6.18302 17.4919H7.23329V16.2866H6.18302V17.4919Z" fill="#2D6974"/>
</svg>
