<svg width="15" height="17" viewBox="0 0 15 17" fill="none" xmlns="http://www.w3.org/2000/svg">
<path fill-rule="evenodd" clip-rule="evenodd" d="M5.35943 13.7697C5.67052 13.7697 5.92271 14.0325 5.92271 14.3568C5.92271 14.4923 5.95566 14.6324 6.027 14.7707C6.09886 14.9098 6.21 15.0474 6.36299 15.1702C6.51605 15.293 6.70494 15.396 6.92132 15.468C7.13754 15.5399 7.3727 15.5778 7.61228 15.5778C7.85179 15.5778 8.08694 15.5399 8.30317 15.468C8.51955 15.396 8.70843 15.293 8.8615 15.1702C9.01449 15.0474 9.12564 14.9098 9.19752 14.7707C9.26887 14.6324 9.30176 14.4923 9.30176 14.3568C9.30176 14.0325 9.55396 13.7697 9.86505 13.7697C10.1761 13.7697 10.4283 14.0325 10.4283 14.3568C10.4283 14.6961 10.3447 15.0262 10.1896 15.3268C10.0351 15.6262 9.81435 15.8873 9.54893 16.1004C9.28359 16.3133 8.97581 16.4767 8.64557 16.5865C8.31519 16.6963 7.96437 16.7519 7.61228 16.7519C7.26012 16.7519 6.9093 16.6963 6.57892 16.5865C6.24868 16.4767 5.94089 16.3133 5.67557 16.1004C5.41013 15.8873 5.1894 15.6262 5.03482 15.3268C4.87974 15.0262 4.79614 14.6961 4.79614 14.3568C4.79614 14.0325 5.04834 13.7697 5.35943 13.7697Z" fill="white"/>
<path fill-rule="evenodd" clip-rule="evenodd" d="M4.92076 0.993499C6.61658 0.11405 8.60369 0.0841357 10.3231 0.912162L10.4768 0.986165C12.2786 1.8538 13.4321 3.73363 13.4321 5.80205V6.82788C13.4321 7.65246 13.6045 8.46709 13.9374 9.21511L14.1362 9.66187C15.0492 11.7135 13.8602 14.1117 11.7262 14.5228L11.6059 14.546C8.96585 15.0545 6.2587 15.0545 3.61865 14.546C1.45591 14.1294 0.311727 11.6358 1.35828 9.61992L1.52832 9.29236C1.94807 8.48384 2.16787 7.57905 2.16787 6.65979V5.62563C2.16787 3.66234 3.23414 1.86818 4.92076 0.993499ZM9.85058 1.97791C8.44132 1.29925 6.8126 1.32377 5.42267 2.04458C4.11876 2.72079 3.29444 4.10783 3.29444 5.62563V6.65979C3.29444 7.77417 3.02799 8.87096 2.51917 9.85105L2.34914 10.1786C1.66654 11.4934 2.41281 13.1198 3.82341 13.3915C6.3281 13.8739 8.89645 13.8739 11.4011 13.3915L11.5214 13.3683C12.9318 13.0966 13.7176 11.5117 13.1142 10.1558L12.9154 9.70907C12.5136 8.80623 12.3055 7.82301 12.3055 6.82787V5.80205C12.3055 4.19137 11.4073 2.72755 10.0042 2.05192L9.85058 1.97791Z" fill="white"/>
</svg>
