<svg width="25" height="25" viewBox="0 0 25 25" fill="none" xmlns="http://www.w3.org/2000/svg">
<circle cx="12.5" cy="12.5" r="12.5" fill="#89D2C7"/>
<path d="M19.0681 6.25H6.08216C5.79516 6.25 5.5199 6.36401 5.31696 6.56696C5.11401 6.7699 5 7.04516 5 7.33216V16.5306C5 16.8176 5.11401 17.0928 5.31696 17.2958C5.5199 17.4987 5.79516 17.6127 6.08216 17.6127H13.6573V19.236C13.6576 19.3338 13.6844 19.4298 13.7349 19.5137C13.7854 19.5975 13.8577 19.6661 13.9441 19.7121C14.0287 19.7556 14.1233 19.7759 14.2183 19.7712C14.3132 19.7664 14.4053 19.7367 14.4852 19.6851L15.8216 18.8031L17.1473 19.6851C17.2287 19.7387 17.323 19.7693 17.4203 19.7737C17.5177 19.7781 17.6144 19.7562 17.7003 19.7102C17.7862 19.6642 17.8581 19.5958 17.9084 19.5124C17.9587 19.4289 17.9855 19.3334 17.986 19.236V17.6127H19.0681C19.3551 17.6127 19.6304 17.4987 19.8333 17.2958C20.0363 17.0928 20.1503 16.8176 20.1503 16.5306V7.33216C20.1503 7.04516 20.0363 6.7699 19.8333 6.56696C19.6304 6.36401 19.3551 6.25 19.0681 6.25ZM16.1409 15.4159C15.7992 15.4846 15.4445 15.4415 15.1292 15.2929C14.8139 15.1444 14.5548 14.8983 14.3902 14.5911C14.2256 14.2839 14.1642 13.9319 14.2152 13.5871C14.2662 13.2424 14.4267 12.9231 14.6732 12.6767C14.9196 12.4303 15.2388 12.2697 15.5836 12.2187C15.9284 12.1677 16.2804 12.2291 16.5876 12.3937C16.8948 12.5583 17.1409 12.8174 17.2894 13.1327C17.438 13.448 17.4811 13.8027 17.4124 14.1444C17.3494 14.458 17.195 14.7461 16.9688 14.9723C16.7426 15.1985 16.4545 15.3529 16.1409 15.4159ZM16.9038 18.2241L16.1192 17.6831C16.0309 17.6249 15.9274 17.5939 15.8216 17.5939C15.7159 17.5939 15.6124 17.6249 15.524 17.6831L14.7395 18.2241V16.3033C15.0808 16.4523 15.4492 16.5292 15.8216 16.5292C16.1941 16.5292 16.5625 16.4523 16.9038 16.3033V18.2241ZM19.0681 16.5306H17.986V15.4484C18.2235 15.1364 18.3894 14.7758 18.4717 14.3923C18.554 14.0089 18.5507 13.612 18.4621 13.23C18.3169 12.5792 17.9366 12.005 17.394 11.6175C16.8514 11.23 16.1849 11.0565 15.5223 11.1303C14.8596 11.2041 14.2476 11.5199 13.8035 12.0173C13.3595 12.5146 13.1147 13.1584 13.1162 13.8251C13.1135 14.411 13.3036 14.9814 13.6573 15.4484V16.5306H6.08216V7.33216H19.0681V16.5306Z" fill="#2D6974"/>
<path d="M7.70514 10.0375H17.4446C17.5881 10.0375 17.7257 9.98048 17.8272 9.87901C17.9287 9.77753 17.9857 9.63991 17.9857 9.4964C17.9857 9.3529 17.9287 9.21527 17.8272 9.1138C17.7257 9.01233 17.5881 8.95532 17.4446 8.95532H7.70514C7.56164 8.95532 7.42401 9.01233 7.32254 9.1138C7.22107 9.21527 7.16406 9.3529 7.16406 9.4964C7.16406 9.63991 7.22107 9.77753 7.32254 9.87901C7.42401 9.98048 7.56164 10.0375 7.70514 10.0375Z" fill="#2D6974"/>
<path d="M7.70514 12.2018H12.0338C12.1773 12.2018 12.3149 12.1448 12.4164 12.0433C12.5179 11.9418 12.5749 11.8042 12.5749 11.6607C12.5749 11.5172 12.5179 11.3796 12.4164 11.2781C12.3149 11.1766 12.1773 11.1196 12.0338 11.1196H7.70514C7.56164 11.1196 7.42401 11.1766 7.32254 11.2781C7.22107 11.3796 7.16406 11.5172 7.16406 11.6607C7.16406 11.8042 7.22107 11.9418 7.32254 12.0433C7.42401 12.1448 7.56164 12.2018 7.70514 12.2018Z" fill="#2D6974"/>
<path d="M7.70514 14.3663H12.0338C12.1773 14.3663 12.3149 14.3093 12.4164 14.2079C12.5179 14.1064 12.5749 13.9688 12.5749 13.8253C12.5749 13.6818 12.5179 13.5441 12.4164 13.4427C12.3149 13.3412 12.1773 13.2842 12.0338 13.2842H7.70514C7.56164 13.2842 7.42401 13.3412 7.32254 13.4427C7.22107 13.5441 7.16406 13.6818 7.16406 13.8253C7.16406 13.9688 7.22107 14.1064 7.32254 14.2079C7.42401 14.3093 7.56164 14.3663 7.70514 14.3663Z" fill="#2D6974"/>
</svg>
