<svg width="25" height="25" viewBox="0 0 25 25" fill="none" xmlns="http://www.w3.org/2000/svg">
<circle cx="12.5" cy="12.5" r="12.5" fill="#89D2C7"/>
<path d="M7 9.66667H18M15.5556 12.112L9.44444 12.1111M11.4815 14.5559L9.44444 14.5556M9.44444 6V7.22222M15.5556 6V7.22222M8.95556 17H16.0444C16.7289 17 17.0712 17 17.3327 16.8668C17.5626 16.7496 17.7496 16.5626 17.8668 16.3327C18 16.0712 18 15.7289 18 15.0444V9.17778C18 8.49327 18 8.15101 17.8668 7.88957C17.7496 7.65959 17.5626 7.47261 17.3327 7.35544C17.0712 7.22222 16.7289 7.22222 16.0444 7.22222H8.95556C8.27105 7.22222 7.92879 7.22222 7.66735 7.35544C7.43737 7.47261 7.25039 7.65959 7.13322 7.88957C7 8.15101 7 8.49327 7 9.17778V15.0444C7 15.7289 7 16.0712 7.13322 16.3327C7.25039 16.5626 7.43737 16.7496 7.66735 16.8668C7.92879 17 8.27104 17 8.95556 17Z" stroke="#2D6974" stroke-width="1.3" stroke-linecap="round" stroke-linejoin="round"/>
</svg>
