<svg width="25" height="25" viewBox="0 0 25 25" fill="none" xmlns="http://www.w3.org/2000/svg">
<circle cx="12.5" cy="12.5" r="12.5" fill="#89D2C7"/>
<path fill-rule="evenodd" clip-rule="evenodd" d="M13.9502 6.1257C13.6303 5.47773 13.1302 5 12.4979 5C11.8663 5 11.3647 5.47691 11.0418 6.12439L9.97741 8.26961L9.97576 8.27297C9.94382 8.33867 9.86749 8.43218 9.75245 8.51813C9.63781 8.60379 9.5266 8.65067 9.45531 8.66303L9.45467 8.66314L7.5279 8.98575C6.83266 9.10252 6.24878 9.44349 6.05954 10.0407C5.87044 10.6375 6.14939 11.2564 6.6469 11.7577L8.14606 13.2685C8.20506 13.328 8.27117 13.44 8.31263 13.586C8.35383 13.731 8.35731 13.8626 8.33885 13.947L8.33859 13.9481L7.91009 15.8153C7.73143 16.5934 7.7934 17.3659 8.34298 17.7701C8.89222 18.1739 9.64158 17.9987 10.3241 17.5905L12.1282 16.5143L12.1293 16.5136C12.2105 16.4664 12.3441 16.43 12.5009 16.43C12.6589 16.43 12.7898 16.4669 12.866 16.5124L14.6736 17.5908C15.357 17.9976 16.1073 18.1759 16.6565 17.7724C17.2064 17.3684 17.2654 16.5944 17.0874 15.8157L16.6588 13.9481L16.6585 13.947C16.64 13.8626 16.6435 13.731 16.6848 13.586C16.7262 13.44 16.7923 13.328 16.8513 13.2685L18.3494 11.7588L18.35 11.7582C18.8506 11.2568 19.1304 10.6375 18.9398 10.0399C18.7494 9.44304 18.1645 9.10248 17.4697 8.98579L15.5413 8.66291" fill="#2D6974"/>
</svg>
