<svg width="20" height="21" viewBox="0 0 20 21" fill="none" xmlns="http://www.w3.org/2000/svg">
<path fill-rule="evenodd" clip-rule="evenodd" d="M14.5811 13.6713C15.7013 12.2996 16.3711 10.5597 16.3711 8.66648C16.3711 4.23823 12.7063 0.648438 8.18554 0.648438C3.66479 0.648438 0 4.23823 0 8.66648C0 13.0947 3.66479 16.6845 8.18554 16.6845C10.1183 16.6845 11.8945 16.0284 13.2949 14.9311L18.4473 19.9783C18.8025 20.3262 19.3784 20.3262 19.7336 19.9783C20.0888 19.6303 20.0888 19.0662 19.7336 18.7183L14.5811 13.6713ZM8.18554 14.9116C4.66436 14.9116 1.80988 12.1156 1.80988 8.66648C1.80988 5.21735 4.66436 2.42128 8.18554 2.42128C11.7067 2.42128 14.5612 5.21735 14.5612 8.66648C14.5612 12.1156 11.7067 14.9116 8.18554 14.9116Z" fill="white"/>
</svg>
