<svg width="23" height="23" viewBox="0 0 23 23" fill="none" xmlns="http://www.w3.org/2000/svg">
<path opacity="0.984" fill-rule="evenodd" clip-rule="evenodd" d="M13.6098 0.0219656C14.28 -0.065168 14.6903 0.106931 14.8407 0.538266C14.2855 3.20725 13.7384 5.87852 13.1995 8.55215C16.2313 8.54466 19.2629 8.55215 22.2945 8.5746C22.873 8.68303 23.0895 8.92995 22.9442 9.31538C18.218 13.6005 13.4653 17.8731 8.68621 22.1331C7.94316 22.3158 7.48732 22.1587 7.31854 21.6617C8.11131 19.0144 8.8863 16.3656 9.64358 13.7152C6.70303 13.7227 3.76254 13.7152 0.822121 13.6927C0.159814 13.6317 -0.102327 13.3847 0.0357116 12.9519C4.41225 8.73174 8.78879 4.51154 13.1653 0.29134C13.3064 0.191038 13.4545 0.101247 13.6098 0.0219656Z" fill="#784A2E"/>
</svg>
