<svg width="25" height="25" viewBox="0 0 25 25" fill="none" xmlns="http://www.w3.org/2000/svg">
<circle cx="12.5" cy="12.5" r="12.5" fill="#89D2C7"/>
<path d="M19 9.55C19 8.83203 18.418 8.25 17.7 8.25H7.29999C6.582 8.25 5.99999 8.83203 5.99999 9.55V16.7C5.99999 17.418 6.582 18 7.29999 18H17.7C18.418 18 19 17.418 19 16.7V9.55Z" stroke="#2D6974" stroke-width="1.3" stroke-linecap="round" stroke-linejoin="round"/>
<path d="M9.8996 8.25V6.3C9.8996 5.58203 10.4816 5 11.1996 5H13.7996C14.5176 5 15.0996 5.58203 15.0996 6.3V8.25" stroke="#2D6974" stroke-width="1.3" stroke-linecap="round" stroke-linejoin="round"/>
<path d="M5.99999 11.5L12.2451 12.749C12.4133 12.7826 12.5866 12.7826 12.7549 12.749L19 11.5" stroke="#2D6974" stroke-width="1.3" stroke-linecap="round" stroke-linejoin="round"/>
</svg>
