<svg width="25" height="25" viewBox="0 0 25 25" fill="none" xmlns="http://www.w3.org/2000/svg">
<circle cx="12.5" cy="12.5" r="12.5" fill="#89D2C7"/>
<path d="M10.4188 12.7224H7.5C6.8125 12.7224 6.25 13.2849 6.25 13.9724V17.7224H10.4188V12.7224Z" stroke="#2D6974" stroke-width="1.3" stroke-miterlimit="10" stroke-linecap="round" stroke-linejoin="round"/>
<path d="M13.3313 10.2227H11.6626C10.9751 10.2227 10.4126 10.7852 10.4126 11.4727V17.7227H14.5813V11.4727C14.5813 10.7852 14.0251 10.2227 13.3313 10.2227Z" stroke="#2D6974" stroke-width="1.3" stroke-miterlimit="10" stroke-linecap="round" stroke-linejoin="round"/>
<path d="M17.5001 14.5978H14.5813V17.7228H18.7501V15.8478C18.7501 15.1603 18.1876 14.5978 17.5001 14.5978Z" stroke="#2D6974" stroke-width="1.3" stroke-miterlimit="10" stroke-linecap="round" stroke-linejoin="round"/>
<path d="M12.8247 5.26642L13.1559 5.92891C13.1997 6.02266 13.3184 6.11016 13.4184 6.12266L14.0184 6.22267C14.3997 6.28517 14.4934 6.56641 14.2184 6.83516L13.7497 7.30391C13.6684 7.38516 13.6247 7.53516 13.6497 7.64141L13.7809 8.21642C13.8872 8.67267 13.6434 8.84767 13.2434 8.61017L12.6809 8.27892C12.5809 8.21642 12.4122 8.21642 12.3122 8.27892L11.7497 8.61017C11.3497 8.84767 11.1059 8.67267 11.2121 8.21642L11.3434 7.64141C11.3684 7.53516 11.3247 7.37891 11.2434 7.30391L10.7809 6.84141C10.5059 6.56641 10.5934 6.29141 10.9809 6.22891L11.5809 6.12892C11.6809 6.11017 11.7997 6.02267 11.8434 5.93517L12.1747 5.27266C12.3559 4.91015 12.6434 4.91017 12.8247 5.26642Z" stroke="#2D6974" stroke-width="1.3" stroke-linecap="round" stroke-linejoin="round"/>
</svg>
