<svg width="14" height="18" viewBox="0 0 14 18" fill="none" xmlns="http://www.w3.org/2000/svg">
<path fill-rule="evenodd" clip-rule="evenodd" d="M6.28217 0.00784704C6.21679 0.0118395 6.16329 0.0227523 6.16329 0.0320237C6.16329 0.0413395 6.12049 0.0489252 6.06818 0.0489252C6.01587 0.0489252 5.97307 0.0569102 5.97307 0.0666696C5.97307 0.076429 5.94311 0.0844139 5.90649 0.0844139C5.86988 0.0844139 5.83992 0.0923989 5.83992 0.102158C5.83992 0.111918 5.80568 0.119903 5.76383 0.119903C5.72198 0.119903 5.68774 0.127888 5.68774 0.137647C5.68774 0.147406 5.66206 0.155391 5.63068 0.155391C5.59929 0.155391 5.57361 0.163376 5.57361 0.173136C5.57361 0.182895 5.54793 0.19088 5.51655 0.19088C5.48516 0.19088 5.45948 0.198865 5.45948 0.208624C5.45948 0.218384 5.44289 0.226369 5.42258 0.226369C5.40228 0.226369 5.38035 0.234354 5.37389 0.244113C5.36742 0.253873 5.34122 0.261857 5.31568 0.261857C5.29014 0.261857 5.26927 0.269842 5.26927 0.279602C5.26927 0.289361 5.25215 0.297346 5.23122 0.297346C5.2103 0.297346 5.19318 0.305331 5.19318 0.315091C5.19318 0.32485 5.17178 0.332835 5.14562 0.332835C5.11947 0.332835 5.09807 0.34082 5.09807 0.350579C5.09807 0.360339 5.08423 0.368324 5.06735 0.368324C5.0333 0.368324 4.84494 0.458199 4.83495 0.479226C4.83143 0.486545 4.81217 0.492534 4.79215 0.492534C4.77208 0.492534 4.75568 0.500519 4.75568 0.510279C4.75568 0.520038 4.74046 0.528023 4.72182 0.528023C4.70323 0.528023 4.67564 0.543993 4.66057 0.563512C4.64549 0.58303 4.61791 0.599 4.59932 0.599C4.58068 0.599 4.56546 0.606985 4.56546 0.616745C4.56546 0.626504 4.55262 0.634489 4.53693 0.634489C4.52124 0.634489 4.5084 0.642474 4.5084 0.652233C4.5084 0.661993 4.49746 0.669978 4.48405 0.669978C4.47069 0.669978 4.44738 0.685948 4.43231 0.705466C4.41723 0.724985 4.39522 0.740955 4.38338 0.740955C4.37153 0.740955 4.33501 0.76491 4.30215 0.794188C4.26929 0.823466 4.23814 0.847421 4.23287 0.847421C4.22759 0.847421 4.17956 0.887346 4.12611 0.936143C4.0727 0.98494 4.02073 1.02486 4.01064 1.02486C3.96903 1.02486 3.49787 1.49451 3.44575 1.58794C3.43067 1.61495 3.40252 1.64995 3.38321 1.66575C3.36386 1.68154 3.34807 1.70572 3.34807 1.71951C3.34807 1.73326 3.33095 1.75607 3.31003 1.77013C3.2891 1.78419 3.27198 1.80815 3.27198 1.82336C3.27198 1.83858 3.25486 1.86253 3.23394 1.87659C3.21302 1.89066 3.1959 1.91239 3.1959 1.92486C3.1959 1.93737 3.18734 1.94757 3.17687 1.94757C3.16641 1.94757 3.15785 1.96354 3.15785 1.98306C3.15785 2.00258 3.14929 2.01855 3.13883 2.01855C3.12837 2.01855 3.11981 2.03053 3.11981 2.04517C3.11981 2.0598 3.11125 2.07178 3.10079 2.07178C3.09033 2.07178 3.08177 2.08376 3.08177 2.0984C3.08177 2.11304 3.07321 2.12501 3.06274 2.12501C3.05228 2.12501 3.04372 2.14098 3.04372 2.1605C3.04372 2.18002 3.03516 2.19599 3.0247 2.19599C3.01424 2.19599 3.00568 2.21196 3.00568 2.23148C3.00568 2.251 2.99712 2.26697 2.98666 2.26697C2.97619 2.26697 2.96764 2.28294 2.96764 2.30246C2.96764 2.32198 2.95908 2.33795 2.94861 2.33795C2.93815 2.33795 2.92959 2.35343 2.92959 2.37237C2.92959 2.39131 2.92103 2.41176 2.91057 2.4178C2.90011 2.42383 2.89155 2.44827 2.89155 2.47209C2.89155 2.49592 2.88299 2.51539 2.87253 2.51539C2.86206 2.51539 2.8535 2.53136 2.8535 2.55088C2.8535 2.5704 2.84495 2.58637 2.83448 2.58637C2.82402 2.58637 2.81546 2.60584 2.81546 2.62966C2.81546 2.65349 2.8069 2.67793 2.79644 2.68396C2.78598 2.69 2.77742 2.71444 2.77742 2.73826C2.77742 2.76208 2.76886 2.78156 2.7584 2.78156C2.74793 2.78156 2.73937 2.80161 2.73937 2.82614C2.73937 2.85067 2.73186 2.88461 2.72268 2.90155C2.68944 2.9629 2.66324 3.06085 2.65116 3.16852C2.64441 3.22894 2.63152 3.2784 2.62253 3.2784C2.61355 3.2784 2.60622 3.32232 2.60622 3.37599C2.60622 3.42967 2.59766 3.47359 2.5872 3.47359C2.57593 3.47359 2.56818 3.53831 2.56818 3.63222C2.56818 3.71948 2.55962 3.79582 2.54916 3.80186C2.52291 3.81698 2.52291 6.6968 2.54916 6.71193C2.55962 6.71796 2.56818 6.7464 2.56818 6.7751C2.56818 6.8038 2.57512 6.82727 2.58363 6.82727C2.59215 6.82727 2.61093 6.85535 2.62539 6.88973C2.65592 6.9623 2.76011 7.05777 2.84875 7.09432C2.88275 7.10838 2.91057 7.12586 2.91057 7.13327C2.91057 7.14063 2.93573 7.14667 2.96649 7.14667C2.99726 7.14667 3.02774 7.15465 3.03421 7.16441C3.04971 7.18784 3.36709 7.18784 3.36709 7.16441C3.36709 7.15465 3.39277 7.14667 3.42416 7.14667C3.45554 7.14667 3.48122 7.13868 3.48122 7.12892C3.48122 7.11916 3.49644 7.11118 3.51508 7.11118C3.53367 7.11118 3.56126 7.09521 3.57633 7.07569C3.59141 7.05617 3.61533 7.0402 3.62945 7.0402C3.65798 7.0402 3.70948 6.99788 3.70948 6.97441C3.70948 6.96612 3.7266 6.9478 3.74753 6.93374C3.76845 6.91967 3.78557 6.89394 3.78557 6.8766C3.78557 6.85921 3.79413 6.84501 3.80459 6.84501C3.81505 6.84501 3.82361 6.82953 3.82361 6.81059C3.82361 6.79165 3.83217 6.7712 3.84264 6.76516C3.85505 6.75802 3.86166 6.26224 3.86166 5.33568C3.86166 4.40184 3.86817 3.9172 3.88068 3.9172C3.89166 3.9172 3.8997 3.86099 3.8997 3.78411C3.8997 3.70724 3.90774 3.65103 3.91872 3.65103C3.92918 3.65103 3.93774 3.6111 3.93774 3.56231C3.93774 3.51351 3.9463 3.47359 3.95677 3.47359C3.96723 3.47359 3.97579 3.44165 3.97579 3.40261C3.97579 3.36357 3.98435 3.33163 3.99481 3.33163C4.00527 3.33163 4.01383 3.31216 4.01383 3.28834C4.01383 3.26451 4.02239 3.24007 4.03285 3.23404C4.04331 3.228 4.05187 3.20747 4.05187 3.18839C4.05187 3.16931 4.05943 3.13986 4.06866 3.12291C4.07793 3.10597 4.09415 3.07212 4.10471 3.04772C4.11531 3.02332 4.14627 2.95864 4.17352 2.90399C4.20077 2.84934 4.22307 2.79145 4.22307 2.77535C4.22307 2.75924 4.23163 2.74607 4.24209 2.74607C4.25255 2.74607 4.26111 2.73303 4.26111 2.7171C4.26111 2.70117 4.27614 2.67522 4.29454 2.65943C4.3129 2.64364 4.34072 2.60691 4.35636 2.57781C4.37196 2.54871 4.40829 2.50159 4.43706 2.47316C4.46584 2.44468 4.48937 2.4146 4.48937 2.40631C4.48937 2.39801 4.52361 2.35831 4.56546 2.31807C4.60731 2.27784 4.64155 2.2376 4.64155 2.2286C4.64155 2.21037 4.90238 1.96842 5.01143 1.88547C5.04994 1.85619 5.0916 1.82425 5.10401 1.81449C5.11643 1.80473 5.15014 1.78543 5.17891 1.77155C5.20768 1.75771 5.23122 1.73974 5.23122 1.73162C5.23122 1.72355 5.24244 1.71689 5.25619 1.71689C5.26988 1.71689 5.29951 1.70092 5.32196 1.68141C5.3444 1.66189 5.37598 1.64592 5.3921 1.64592C5.40822 1.64592 5.42144 1.63891 5.42144 1.63035C5.42144 1.62174 5.44712 1.60479 5.4785 1.59268C5.50989 1.58057 5.53557 1.56363 5.53557 1.55502C5.53557 1.54646 5.55269 1.53945 5.57361 1.53945C5.59454 1.53945 5.61166 1.53147 5.61166 1.52171C5.61166 1.51195 5.62878 1.50396 5.6497 1.50396C5.67062 1.50396 5.68774 1.49598 5.68774 1.48622C5.68774 1.47646 5.70914 1.46847 5.7353 1.46847C5.76145 1.46847 5.78285 1.46049 5.78285 1.45073C5.78285 1.44097 5.79997 1.43299 5.8209 1.43299C5.84182 1.43299 5.85894 1.425 5.85894 1.41524C5.85894 1.40548 5.88462 1.3975 5.916 1.3975C5.94739 1.3975 5.97307 1.38951 5.97307 1.37975C5.97307 1.36999 5.99875 1.36201 6.03014 1.36201C6.06152 1.36201 6.0872 1.35402 6.0872 1.34426C6.0872 1.3345 6.11288 1.32652 6.14427 1.32652C6.17565 1.32652 6.20133 1.31853 6.20133 1.30877C6.20133 1.29902 6.23557 1.29103 6.27742 1.29103C6.31927 1.29103 6.3535 1.28305 6.3535 1.27329C6.3535 1.26353 6.40058 1.25554 6.45812 1.25554C6.51567 1.25554 6.56274 1.24756 6.56274 1.2378C6.56274 1.22649 6.72124 1.22005 7.00024 1.22005C7.27924 1.22005 7.43774 1.22649 7.43774 1.2378C7.43774 1.24756 7.48482 1.25554 7.54236 1.25554C7.5999 1.25554 7.64698 1.26353 7.64698 1.27329C7.64698 1.28305 7.68122 1.29103 7.72307 1.29103C7.76492 1.29103 7.79916 1.29902 7.79916 1.30877C7.79916 1.31853 7.82431 1.32652 7.85508 1.32652C7.88585 1.32652 7.91633 1.3345 7.9228 1.34426C7.92927 1.35402 7.95547 1.36201 7.981 1.36201C8.00654 1.36201 8.02742 1.36999 8.02742 1.37975C8.02742 1.38951 8.0531 1.3975 8.08448 1.3975C8.11587 1.3975 8.14155 1.40548 8.14155 1.41524C8.14155 1.425 8.15867 1.43299 8.17959 1.43299C8.20051 1.43299 8.21764 1.44097 8.21764 1.45073C8.21764 1.46049 8.23903 1.46847 8.26519 1.46847C8.29134 1.46847 8.31274 1.47646 8.31274 1.48622C8.31274 1.49598 8.32986 1.50396 8.35079 1.50396C8.37171 1.50396 8.38883 1.51195 8.38883 1.52171C8.38883 1.53147 8.40595 1.53945 8.42687 1.53945C8.4478 1.53945 8.46492 1.54646 8.46492 1.55502C8.46492 1.56363 8.4906 1.58057 8.52198 1.59268C8.55337 1.60479 8.57905 1.62174 8.57905 1.63035C8.57905 1.63891 8.59617 1.64592 8.61709 1.64592C8.63801 1.64592 8.65514 1.65257 8.65514 1.66065C8.65514 1.66876 8.67867 1.68673 8.70744 1.70057C8.73621 1.71445 8.77635 1.73974 8.79661 1.75682C8.81691 1.7739 8.84107 1.78787 8.8503 1.78787C8.85952 1.78787 8.87878 1.79785 8.8931 1.81005C8.90736 1.82225 8.95054 1.85619 8.98906 1.88547C9.10414 1.97303 9.35894 2.21081 9.35894 2.23073C9.35894 2.24089 9.3675 2.24923 9.37796 2.24923C9.38842 2.24923 9.39698 2.25801 9.39698 2.26874C9.39698 2.27944 9.42266 2.31058 9.45405 2.33795C9.48543 2.36532 9.51111 2.39526 9.51111 2.40453C9.51111 2.4138 9.53465 2.44468 9.56342 2.47316C9.59219 2.50159 9.62852 2.54871 9.64412 2.57781C9.65977 2.60691 9.68759 2.64364 9.70594 2.65943C9.72435 2.67522 9.73937 2.70117 9.73937 2.7171C9.73937 2.73303 9.74793 2.74607 9.7584 2.74607C9.76886 2.74607 9.77742 2.75782 9.77742 2.7722C9.77742 2.78657 9.79972 2.84446 9.82692 2.90084C9.85417 2.95723 9.88513 3.02332 9.89573 3.04772C9.90634 3.07212 9.92255 3.10597 9.93183 3.12291C9.94105 3.13986 9.94861 3.16931 9.94861 3.18839C9.94861 3.20747 9.95717 3.228 9.96763 3.23404C9.9781 3.24007 9.98666 3.26451 9.98666 3.28834C9.98666 3.31216 9.99522 3.33163 10.0057 3.33163C10.0161 3.33163 10.0247 3.36357 10.0247 3.40261C10.0247 3.44165 10.0333 3.47359 10.0437 3.47359C10.0542 3.47359 10.0627 3.51351 10.0627 3.56231C10.0627 3.6111 10.0713 3.65103 10.0818 3.65103C10.0927 3.65103 10.1008 3.70724 10.1008 3.78411C10.1008 3.86099 10.1088 3.9172 10.1198 3.9172C10.1323 3.9172 10.1388 4.39332 10.1388 5.31013C10.1388 6.22693 10.1453 6.70306 10.1579 6.70306C10.1683 6.70306 10.1769 6.71344 10.1769 6.72613C10.1769 6.75878 10.2216 6.8447 10.2387 6.84488C10.2465 6.84497 10.253 6.85544 10.253 6.86817C10.253 6.92083 10.4808 7.07569 10.5584 7.07569C10.5787 7.07569 10.5954 7.08368 10.5954 7.09343C10.5954 7.10421 10.681 7.11118 10.8141 7.11118C10.9473 7.11118 11.0329 7.10421 11.0329 7.09343C11.0329 7.08368 11.05 7.07569 11.0709 7.07569C11.0918 7.07569 11.1089 7.06771 11.1089 7.05795C11.1089 7.04819 11.1249 7.0402 11.1443 7.0402C11.1995 7.0402 11.3943 6.85406 11.3943 6.80141C11.3943 6.78637 11.4028 6.77404 11.4133 6.77404C11.4237 6.77404 11.4323 6.75008 11.4323 6.7208C11.4323 6.69153 11.4409 6.66757 11.4513 6.66757C11.4638 6.66757 11.4704 6.16811 11.4704 5.20473C11.4704 4.24862 11.4637 3.73807 11.4513 3.73088C11.4409 3.72485 11.4323 3.66097 11.4323 3.58892C11.4323 3.51688 11.4237 3.453 11.4133 3.44697C11.4028 3.44094 11.3943 3.40052 11.3943 3.35718C11.3943 3.31384 11.3869 3.2784 11.378 3.2784C11.3691 3.2784 11.3566 3.22126 11.3503 3.15144C11.344 3.08161 11.33 3.01614 11.319 3.00593C11.3081 2.99573 11.2992 2.9716 11.2992 2.95226C11.2992 2.90448 11.247 2.75379 11.2018 2.67088C11.1926 2.65393 11.185 2.62798 11.185 2.61321C11.185 2.59843 11.1765 2.58637 11.166 2.58637C11.1555 2.58637 11.147 2.56241 11.147 2.53314C11.147 2.50386 11.1384 2.4799 11.128 2.4799C11.1175 2.4799 11.1089 2.46393 11.1089 2.44441C11.1089 2.42489 11.1004 2.40892 11.0899 2.40892C11.0795 2.40892 11.0709 2.39295 11.0709 2.37344C11.0709 2.35392 11.0623 2.33795 11.0519 2.33795C11.0414 2.33795 11.0329 2.32198 11.0329 2.30246C11.0329 2.28294 11.0243 2.26697 11.0138 2.26697C11.0034 2.26697 10.9948 2.251 10.9948 2.23148C10.9948 2.21196 10.9862 2.19599 10.9758 2.19599C10.9653 2.19599 10.9568 2.18002 10.9568 2.1605C10.9568 2.14098 10.9482 2.12501 10.9377 2.12501C10.9273 2.12501 10.9187 2.10905 10.9187 2.08953C10.9187 2.07001 10.9102 2.05404 10.8997 2.05404C10.8892 2.05404 10.8807 2.04206 10.8807 2.02742C10.8807 2.01278 10.8721 2.0008 10.8617 2.0008C10.8512 2.0008 10.8426 1.98883 10.8426 1.97419C10.8426 1.95955 10.8341 1.94757 10.8236 1.94757C10.8132 1.94757 10.8046 1.93737 10.8046 1.92486C10.8046 1.91239 10.7875 1.89066 10.7665 1.87659C10.7456 1.86253 10.7285 1.83858 10.7285 1.82336C10.7285 1.80815 10.7114 1.78419 10.6905 1.77013C10.6695 1.75607 10.6524 1.73326 10.6524 1.71951C10.6524 1.70572 10.6366 1.68154 10.6172 1.66575C10.5978 1.64995 10.5687 1.61309 10.5526 1.58381C10.5363 1.55453 10.4987 1.50614 10.4689 1.47628C10.439 1.44647 10.3938 1.39457 10.3684 1.36094C10.343 1.32736 10.2802 1.26397 10.2289 1.22005C10.1777 1.17614 10.0882 1.09828 10.0301 1.04705C9.97201 0.995808 9.91642 0.953887 9.90653 0.953887C9.89664 0.953887 9.85569 0.921948 9.81546 0.88291C9.77523 0.843872 9.735 0.811933 9.72606 0.811933C9.71707 0.811933 9.69738 0.795963 9.68231 0.776444C9.66723 0.756925 9.64393 0.740955 9.63057 0.740955C9.61716 0.740955 9.60622 0.73297 9.60622 0.723211C9.60622 0.713451 9.59338 0.705466 9.57769 0.705466C9.562 0.705466 9.54916 0.698812 9.54916 0.690739C9.54916 0.682621 9.52562 0.664654 9.49685 0.650814C9.46808 0.636929 9.42794 0.611643 9.40768 0.594564C9.38738 0.577485 9.35956 0.563512 9.34586 0.563512C9.33212 0.563512 9.3209 0.555527 9.3209 0.545767C9.3209 0.536008 9.30449 0.528023 9.28442 0.528023C9.2644 0.528023 9.24514 0.521857 9.24162 0.514315C9.23197 0.493333 8.96761 0.368324 8.93295 0.368324C8.91616 0.368324 8.90242 0.360339 8.90242 0.350579C8.90242 0.34082 8.88582 0.332835 8.86551 0.332835C8.84521 0.332835 8.82329 0.32485 8.81682 0.315091C8.81035 0.305331 8.78843 0.297346 8.76812 0.297346C8.74782 0.297346 8.73122 0.289361 8.73122 0.279602C8.73122 0.269842 8.71462 0.261857 8.69432 0.261857C8.67401 0.261857 8.65209 0.253873 8.64562 0.244113C8.63916 0.234354 8.61295 0.226369 8.58742 0.226369C8.56188 0.226369 8.541 0.218384 8.541 0.208624C8.541 0.198865 8.51532 0.19088 8.48394 0.19088C8.45255 0.19088 8.42687 0.182895 8.42687 0.173136C8.42687 0.163376 8.40119 0.155391 8.36981 0.155391C8.33842 0.155391 8.31274 0.147406 8.31274 0.137647C8.31274 0.127888 8.28331 0.119903 8.24731 0.119903C8.21131 0.119903 8.17655 0.111918 8.17008 0.102158C8.16361 0.0923989 8.12885 0.0844139 8.09285 0.0844139C8.05685 0.0844139 8.02742 0.076429 8.02742 0.0666696C8.02742 0.0569102 7.99061 0.0489252 7.94562 0.0489252C7.90064 0.0489252 7.85327 0.0390771 7.84039 0.0270553C7.81708 0.00531847 6.57301 -0.0100304 6.28217 0.00784704ZM1.82633 8.24682C1.82633 8.25715 1.76294 8.26456 1.67416 8.26456C1.58537 8.26456 1.52198 8.27197 1.52198 8.28231C1.52198 8.29207 1.48774 8.30005 1.4459 8.30005C1.40405 8.30005 1.36981 8.30804 1.36981 8.3178C1.36981 8.32755 1.34413 8.33554 1.31274 8.33554C1.28136 8.33554 1.25568 8.34352 1.25568 8.35328C1.25568 8.36304 1.24027 8.37103 1.22144 8.37103C1.17893 8.37103 1.08482 8.41069 1.08463 8.4287C1.08453 8.43602 1.06736 8.44201 1.04644 8.44201C1.02552 8.44201 1.0084 8.44999 1.0084 8.45975C1.0084 8.46951 0.991277 8.47749 0.970353 8.47749C0.949429 8.47749 0.932309 8.48468 0.932309 8.49351C0.932309 8.50229 0.90877 8.51733 0.88 8.52691C0.851229 8.53645 0.807099 8.5612 0.78199 8.58188C0.756834 8.60255 0.729395 8.61945 0.720978 8.61945C0.700339 8.61945 0.399701 8.89786 0.399701 8.91698C0.399701 8.92532 0.382724 8.94918 0.361942 8.96999C0.341161 8.99079 0.301644 9.05219 0.27411 9.1064C0.246576 9.16065 0.216474 9.20501 0.207248 9.20501C0.198023 9.20501 0.190462 9.2205 0.190462 9.23944C0.190462 9.25838 0.181902 9.27883 0.17144 9.28486C0.160978 9.2909 0.152418 9.31135 0.152418 9.33029C0.152418 9.34923 0.143858 9.36471 0.133396 9.36471C0.122934 9.36471 0.114375 9.38419 0.114375 9.40801C0.114375 9.43183 0.105815 9.45627 0.0953528 9.46231C0.0848909 9.46834 0.0763312 9.49677 0.0763312 9.52548C0.0763312 9.55418 0.0677713 9.57764 0.0573094 9.57764C0.0468474 9.57764 0.0382876 9.61757 0.0382876 9.66637C0.0382876 9.71516 0.0297279 9.75509 0.019266 9.75509C0.00666405 9.75509 0.000244141 10.8523 0.000244141 13.0112C0.000244141 15.1701 0.00666405 16.2673 0.019266 16.2673C0.0297279 16.2673 0.0382876 16.3072 0.0382876 16.356C0.0382876 16.4048 0.0468474 16.4447 0.0573094 16.4447C0.0677713 16.4447 0.0763312 16.4687 0.0763312 16.4979C0.0763312 16.5272 0.0848909 16.5512 0.0953528 16.5512C0.105815 16.5512 0.114375 16.5711 0.114375 16.5955C0.114375 16.6199 0.122934 16.6399 0.133396 16.6399C0.143858 16.6399 0.152418 16.6559 0.152418 16.6754C0.152418 16.6949 0.160978 16.7109 0.17144 16.7109C0.181902 16.7109 0.190462 16.7213 0.190462 16.7339C0.190462 16.7666 0.23521 16.8525 0.252282 16.8527C0.260129 16.8528 0.266549 16.8677 0.266549 16.8858C0.266549 16.9201 0.35362 17.0524 0.383009 17.0628C0.392187 17.0661 0.399701 17.0791 0.399701 17.0918C0.399701 17.1206 0.663865 17.3674 0.694728 17.3674C0.707235 17.3674 0.74428 17.3914 0.77714 17.4207C0.81 17.4499 0.8479 17.4739 0.861358 17.4739C0.874816 17.4739 0.898213 17.4899 0.913288 17.5094C0.928362 17.5289 0.955944 17.5449 0.974538 17.5449C0.993179 17.5449 1.0084 17.5528 1.0084 17.5626C1.0084 17.5724 1.02552 17.5803 1.04644 17.5803C1.06736 17.5803 1.08448 17.5883 1.08448 17.5981C1.08448 17.6079 1.1016 17.6158 1.12253 17.6158C1.14345 17.6158 1.16057 17.6238 1.16057 17.6336C1.16057 17.6433 1.18197 17.6513 1.20812 17.6513C1.23428 17.6513 1.25568 17.6593 1.25568 17.6691C1.25568 17.6788 1.27965 17.6868 1.30894 17.6868C1.33823 17.6868 1.3729 17.6968 1.38598 17.709C1.4049 17.7267 2.5532 17.7312 7.00024 17.7312C11.4473 17.7312 12.5956 17.7267 12.6145 17.709C12.6276 17.6968 12.6623 17.6868 12.6915 17.6868C12.7208 17.6868 12.7448 17.6788 12.7448 17.6691C12.7448 17.6593 12.7662 17.6513 12.7924 17.6513C12.8185 17.6513 12.8399 17.6433 12.8399 17.6336C12.8399 17.6238 12.857 17.6158 12.878 17.6158C12.8989 17.6158 12.916 17.6079 12.916 17.5981C12.916 17.5883 12.9331 17.5803 12.954 17.5803C12.975 17.5803 12.9921 17.5724 12.9921 17.5626C12.9921 17.5528 13.0073 17.5449 13.026 17.5449C13.0445 17.5449 13.0721 17.5289 13.0872 17.5094C13.1023 17.4899 13.1267 17.4739 13.1415 17.4739C13.1562 17.4739 13.1822 17.4599 13.1991 17.4427C13.216 17.4256 13.2536 17.4002 13.2826 17.3863C13.3505 17.3538 13.6008 17.1221 13.6008 17.0918C13.6008 17.0791 13.6083 17.0661 13.6175 17.0628C13.6431 17.0537 13.7339 16.9221 13.7339 16.894C13.7339 16.8803 13.7511 16.8519 13.772 16.831C13.7929 16.8101 13.81 16.7789 13.81 16.7618C13.81 16.7447 13.8186 16.7258 13.829 16.7197C13.8395 16.7137 13.8481 16.6933 13.8481 16.6743C13.8481 16.6554 13.8566 16.6399 13.8671 16.6399C13.8776 16.6399 13.8861 16.6199 13.8861 16.5955C13.8861 16.5711 13.8947 16.5512 13.9051 16.5512C13.9156 16.5512 13.9242 16.5272 13.9242 16.4979C13.9242 16.4687 13.9327 16.4447 13.9432 16.4447C13.9536 16.4447 13.9622 16.4048 13.9622 16.356C13.9622 16.3072 13.9708 16.2673 13.9812 16.2673C13.9938 16.2673 14.0002 15.1701 14.0002 13.0112C14.0002 10.8523 13.9938 9.75509 13.9812 9.75509C13.9708 9.75509 13.9622 9.71516 13.9622 9.66637C13.9622 9.61757 13.9536 9.57764 13.9432 9.57764C13.9327 9.57764 13.9242 9.55418 13.9242 9.52548C13.9242 9.49677 13.9156 9.46834 13.9051 9.46231C13.8947 9.45627 13.8861 9.43183 13.8861 9.40801C13.8861 9.38419 13.8776 9.36471 13.8671 9.36471C13.8566 9.36471 13.8481 9.34475 13.8481 9.32035C13.8481 9.29595 13.8395 9.27599 13.829 9.27599C13.8186 9.27599 13.81 9.26069 13.81 9.24197C13.81 9.22329 13.8036 9.20532 13.7958 9.20204C13.7879 9.1988 13.7563 9.15222 13.7254 9.09855C13.6946 9.04487 13.654 8.98547 13.6351 8.96657C13.6162 8.94763 13.6008 8.92519 13.6008 8.91667C13.6008 8.89098 13.276 8.60171 13.2471 8.60171C13.2324 8.60171 13.2204 8.5943 13.2204 8.58525C13.2204 8.5762 13.1861 8.55468 13.1443 8.53747C13.1024 8.52026 13.0682 8.49972 13.0682 8.49182C13.0682 8.48393 13.0511 8.47749 13.0301 8.47749C13.0092 8.47749 12.9921 8.47102 12.9921 8.46308C12.9921 8.45514 12.9621 8.43766 12.9255 8.42426C12.8889 8.41086 12.8589 8.39339 12.8589 8.38545C12.8589 8.37751 12.8333 8.37103 12.8019 8.37103C12.7705 8.37103 12.7448 8.36304 12.7448 8.35328C12.7448 8.34352 12.7191 8.33554 12.6877 8.33554C12.6564 8.33554 12.6307 8.32755 12.6307 8.3178C12.6307 8.30804 12.5964 8.30005 12.5546 8.30005C12.5127 8.30005 12.4785 8.29207 12.4785 8.28231C12.4785 8.27197 12.4151 8.26456 12.3263 8.26456C12.2375 8.26456 12.1742 8.25715 12.1742 8.24682C12.1742 8.23502 10.4369 8.22907 7.00024 8.22907C3.56363 8.22907 1.82633 8.23502 1.82633 8.24682ZM12.1076 9.48892C12.114 9.49868 12.1437 9.50667 12.1735 9.50667C12.2849 9.50667 12.5926 9.72133 12.5926 9.79905C12.5926 9.81391 12.6012 9.82607 12.6117 9.82607C12.6221 9.82607 12.6307 9.84603 12.6307 9.87043C12.6307 9.89482 12.6392 9.91479 12.6497 9.91479C12.6623 9.91479 12.6687 10.9558 12.6687 13.0023C12.6687 15.0488 12.6623 16.0898 12.6497 16.0898C12.6392 16.0898 12.6307 16.1138 12.6307 16.1431C12.6307 16.1723 12.6221 16.1963 12.6117 16.1963C12.6012 16.1963 12.5926 16.2072 12.5926 16.2205C12.5926 16.2549 12.3928 16.4447 12.3565 16.4447C12.3399 16.4447 12.3263 16.4527 12.3263 16.4625C12.3263 16.4722 12.3092 16.4802 12.2883 16.4802C12.2674 16.4802 12.2502 16.4882 12.2502 16.4979C12.2502 16.5097 10.4875 16.5157 7.00024 16.5157C3.51294 16.5157 1.75024 16.5097 1.75024 16.4979C1.75024 16.4882 1.73312 16.4802 1.7122 16.4802C1.69128 16.4802 1.67416 16.4722 1.67416 16.4625C1.67416 16.4527 1.66056 16.4447 1.64396 16.4447C1.60772 16.4447 1.40785 16.2549 1.40785 16.2205C1.40785 16.2072 1.39929 16.1963 1.38883 16.1963C1.37837 16.1963 1.36981 16.1723 1.36981 16.1431C1.36981 16.1138 1.36125 16.0898 1.35079 16.0898C1.32444 16.0898 1.32444 9.93883 1.35079 9.92366C1.36125 9.91763 1.36981 9.89318 1.36981 9.86936C1.36981 9.84554 1.37837 9.82607 1.38883 9.82607C1.39929 9.82607 1.40785 9.81409 1.40785 9.79945C1.40785 9.78481 1.41641 9.77283 1.42687 9.77283C1.43734 9.77283 1.4459 9.76463 1.4459 9.7546C1.4459 9.72594 1.61286 9.57764 1.6451 9.57764C1.66108 9.57764 1.67416 9.56966 1.67416 9.5599C1.67416 9.55014 1.69128 9.54216 1.7122 9.54216C1.73312 9.54216 1.75024 9.53417 1.75024 9.52441C1.75024 9.51266 2.72316 9.50667 4.6309 9.50667C6.53083 9.50667 7.51559 9.50063 7.52334 9.48892C7.53109 9.47726 8.31574 9.47118 9.81546 9.47118C11.3152 9.47118 12.0998 9.47726 12.1076 9.48892ZM6.82905 11.8489C6.82905 11.8587 6.80337 11.8667 6.77198 11.8667C6.7406 11.8667 6.71492 11.8727 6.71492 11.8801C6.71492 11.8875 6.68753 11.9048 6.6541 11.9186C6.57967 11.9493 6.42959 12.0863 6.42959 12.1235C6.42959 12.1384 6.42103 12.1506 6.41057 12.1506C6.40011 12.1506 6.39155 12.1665 6.39155 12.1861C6.39155 12.2056 6.38299 12.2216 6.37253 12.2216C6.36206 12.2216 6.3535 12.249 6.3535 12.2826C6.3535 12.3162 6.34494 12.3486 6.33448 12.3546C6.32236 12.3616 6.31546 12.6062 6.31546 13.03C6.31546 13.461 6.32212 13.6943 6.33448 13.6943C6.34494 13.6943 6.3535 13.7263 6.3535 13.7653C6.3535 13.8043 6.36206 13.8363 6.37253 13.8363C6.38299 13.8363 6.39155 13.8523 6.39155 13.8718C6.39155 13.8913 6.40011 13.9073 6.41057 13.9073C6.42103 13.9073 6.42959 13.9194 6.42959 13.9343C6.42959 13.9734 6.61629 14.14 6.71244 14.1867C6.80013 14.2294 7.15032 14.246 7.22399 14.211C7.24215 14.2024 7.28257 14.1844 7.31382 14.1711C7.386 14.1402 7.5709 13.97 7.5709 13.9343C7.5709 13.9194 7.57945 13.9073 7.58992 13.9073C7.60038 13.9073 7.60894 13.8913 7.60894 13.8718C7.60894 13.8523 7.6175 13.8363 7.62796 13.8363C7.64037 13.8363 7.64698 13.5583 7.64698 13.0378C7.64698 12.5173 7.64037 12.2393 7.62796 12.2393C7.6175 12.2393 7.60894 12.2211 7.60894 12.1988C7.60894 12.1766 7.59182 12.1469 7.5709 12.1328C7.54997 12.1188 7.53285 12.0967 7.53285 12.0838C7.53285 12.0559 7.44811 11.9731 7.41958 11.9731C7.40864 11.9731 7.3997 11.9666 7.3997 11.9587C7.3997 11.9383 7.25109 11.8667 7.20882 11.8667C7.18951 11.8667 7.1684 11.8587 7.16193 11.8489C7.15546 11.8392 7.0779 11.8312 6.98959 11.8312C6.89524 11.8312 6.82905 11.8385 6.82905 11.8489Z" fill="#4B8B8B"/>
</svg>
