<svg width="13" height="4" viewBox="0 0 13 4" fill="none" xmlns="http://www.w3.org/2000/svg">
<path d="M6.5 3.53147C5.673 3.53147 5 2.79886 5 1.8986C5 0.99835 5.673 0.265737 6.5 0.265737C7.327 0.265737 8 0.99835 8 1.8986C8 2.79886 7.327 3.53147 6.5 3.53147Z" fill="#4B8B8B"/>
<path d="M1.5 3.53147C0.673 3.53147 0 2.79886 0 1.8986C0 0.99835 0.673 0.265737 1.5 0.265737C2.327 0.265737 3 0.99835 3 1.8986C3 2.79886 2.327 3.53147 1.5 3.53147Z" fill="#4B8B8B"/>
<path d="M11.5 3.53147C10.673 3.53147 10 2.79886 10 1.8986C10 0.99835 10.673 0.265737 11.5 0.265737C12.327 0.265737 13 0.99835 13 1.8986C13 2.79886 12.327 3.53147 11.5 3.53147Z" fill="#4B8B8B"/>
</svg>
