<svg width="25" height="25" viewBox="0 0 25 25" fill="none" xmlns="http://www.w3.org/2000/svg">
<circle cx="12.5" cy="12.5" r="12.5" fill="#89D2C7"/>
<path d="M19 6.25H6C5.45 6.25 5 6.69196 5 7.23214V16.5625C5 17.1027 5.45 17.5446 6 17.5446H19C19.55 17.5446 20 17.1027 20 16.5625V7.23214C20 6.69196 19.55 6.25 19 6.25ZM19 15.0893C19 15.3594 18.775 15.5804 18.5 15.5804H6.5C6.225 15.5804 6 15.3594 6 15.0893V7.72321C6 7.45312 6.225 7.23214 6.5 7.23214H18.5C18.775 7.23214 19 7.45312 19 7.72321V15.0893ZM15.5 19.5089C15.5 19.78 15.2765 20 15 20H10C9.7235 20 9.5 19.78 9.5 19.5089C9.5 19.2379 9.7235 19.0179 10 19.0179H10.5V18.0357H14.5V19.0179H15C15.2765 19.0179 15.5 19.2379 15.5 19.5089ZM15.5 12.1429C15.5 12.4139 15.2765 12.6339 15 12.6339H10C9.7235 12.6339 9.5 12.4139 9.5 12.1429C9.5 11.8718 9.7235 11.6518 10 11.6518H15C15.2765 11.6518 15.5 11.8718 15.5 12.1429ZM15.5 10.1786C15.5 10.4496 15.2765 10.6696 15 10.6696H10C9.7235 10.6696 9.5 10.4496 9.5 10.1786C9.5 9.9075 9.7235 9.6875 10 9.6875H15C15.2765 9.6875 15.5 9.9075 15.5 10.1786Z" fill="#2D6974"/>
</svg>
