<svg width="10" height="12" viewBox="0 0 10 12" fill="none" xmlns="http://www.w3.org/2000/svg">
<path d="M2.17666 2.7322H1.76293V1.9931H2.16634C2.4276 1.9931 2.59066 2.12082 2.59066 2.35901V2.36575C2.59066 2.57322 2.4374 2.7322 2.17666 2.7322ZM5.14956 2.72843V2.72169C5.14956 2.29327 4.86156 1.9931 4.43406 1.9931H4.03039V3.45028H4.43406C4.86156 3.45028 5.14956 3.15685 5.14956 2.72843ZM9.23077 1.34724V10.4858C9.23077 11.2298 8.63863 11.8331 7.90725 11.8331H1.32352C0.592408 11.8331 0 11.2298 0 10.4858V1.34724C0 0.603293 0.592408 0 1.32352 0H7.90698C8.63783 0 9.23077 0.603293 9.23077 1.34724ZM3.50733 3.66449C3.50733 3.81295 3.62301 3.93043 3.7686 3.93043H4.43353C5.17973 3.93043 5.69591 3.40205 5.69591 2.72169V2.71495C5.69591 2.0346 5.18053 1.51322 4.43353 1.51322H3.7686C3.62274 1.51322 3.50733 1.6307 3.50733 1.77916V3.66449ZM1.2404 3.68497C1.2404 3.8337 1.35582 3.95091 1.50167 3.95091C1.64752 3.95091 1.76267 3.83343 1.76267 3.68497V3.20535H2.15972C2.69231 3.20535 3.11954 2.91542 3.11954 2.35605V2.34877C3.11954 1.85515 2.77701 1.51322 2.21028 1.51322H1.5014C1.35529 1.51322 1.24014 1.6307 1.24014 1.77916L1.2404 3.68497ZM7.99036 9.78122C7.99036 9.48375 7.75319 9.24232 7.46096 9.24232H1.76981C1.47758 9.24232 1.2404 9.48375 1.2404 9.78122C1.2404 10.0787 1.47758 10.3201 1.76981 10.3201H7.46096C7.75319 10.3201 7.99036 10.0787 7.99036 9.78122ZM7.99036 7.76036C7.99036 7.46289 7.75319 7.22147 7.46096 7.22147H1.76981C1.47758 7.22147 1.2404 7.46289 1.2404 7.76036C1.2404 8.05783 1.47758 8.29926 1.76981 8.29926H7.46096C7.75319 8.29926 7.99036 8.05783 7.99036 7.76036ZM7.99036 5.7395C7.99036 5.44203 7.75319 5.20061 7.46096 5.20061H3.7551C3.46286 5.20061 3.22569 5.44203 3.22569 5.7395C3.22569 6.03697 3.46286 6.2784 3.7551 6.2784H7.46096C7.75319 6.2784 7.99036 6.03697 7.99036 5.7395ZM7.99036 1.75491C7.99036 1.62019 7.88554 1.51322 7.75319 1.51322H6.42332C6.2772 1.51322 6.16258 1.6307 6.16258 1.77916V3.68497C6.16258 3.8337 6.27799 3.95091 6.42332 3.95091C6.56917 3.95091 6.68431 3.83343 6.68431 3.68497V2.99464H7.60019C7.73254 2.99464 7.83763 2.88767 7.83763 2.75295C7.83763 2.61822 7.73254 2.51125 7.60019 2.51125H6.68431V1.99661H7.75292C7.88528 1.99634 7.99036 1.88964 7.99036 1.75491Z" fill="#EA4444"/>
</svg>
