<svg width="16" height="16" viewBox="0 0 16 16" fill="none" xmlns="http://www.w3.org/2000/svg">
<path fill-rule="evenodd" clip-rule="evenodd" d="M11.6649 10.6359C12.561 9.51563 13.0969 8.09461 13.0969 6.54843C13.0969 2.93183 10.165 0 6.54843 0C2.93183 0 0 2.93183 0 6.54843C0 10.165 2.93183 13.0969 6.54843 13.0969C8.09461 13.0969 9.51563 12.561 10.6359 11.6649L14.7579 15.7869C15.042 16.071 15.5027 16.071 15.7869 15.7869C16.071 15.5027 16.071 15.042 15.7869 14.7579L11.6649 10.6359ZM6.54843 11.6489C3.73149 11.6489 1.4479 9.36537 1.4479 6.54843C1.4479 3.73149 3.73149 1.4479 6.54843 1.4479C9.36537 1.4479 11.6489 3.73149 11.6489 6.54843C11.6489 9.36537 9.36537 11.6489 6.54843 11.6489Z" fill="white"/>
</svg>
