<svg width="182" height="182" viewBox="0 0 182 182" fill="none" xmlns="http://www.w3.org/2000/svg">
<g clip-path="url(#clip0_248_229)">
<path d="M182 91.0001C182 78.6696 176.586 67.0367 167.402 59.7264C168.464 47.4262 164.065 35.3763 155.345 26.6479C146.624 17.9347 134.604 13.5439 122.911 14.8558C107.638 -4.52717 74.6428 -4.89117 59.7263 14.5904C47.411 13.4984 35.3763 17.9195 26.6554 26.6479C17.9422 35.3687 13.5438 47.4262 14.8633 59.0818C-4.51966 74.3547 -4.89125 107.35 14.5979 122.274C13.5363 134.574 17.9346 146.624 26.6554 155.352C35.3763 164.065 47.411 168.471 59.0893 167.144C74.3622 186.527 107.357 186.891 122.274 167.41C134.559 168.441 146.616 164.081 155.345 155.352C164.058 146.631 168.456 134.574 167.137 122.918C176.586 114.971 182 103.338 182 91.0077V91.0001ZM133.012 80.1256L97.0743 114.766C88.2548 123.57 73.8238 123.495 65.0043 114.668L47.9267 98.8033C44.863 95.952 44.681 91.1517 47.5323 88.0881C50.3913 85.0168 55.1991 84.85 58.2476 87.6937L75.5224 103.748C78.6923 106.91 83.4849 106.902 86.4424 103.937L122.478 69.198C125.497 66.3012 130.297 66.3846 133.201 69.3952C136.113 72.4057 136.022 77.2136 133.012 80.118V80.1256Z" fill="#509999"/>
</g>
<defs>
<clipPath id="clip0_248_229">
<rect width="182" height="182" fill="white"/>
</clipPath>
</defs>
</svg>
