<svg width="15" height="15" viewBox="0 0 15 15" fill="none" xmlns="http://www.w3.org/2000/svg">
<path d="M7.50023 7.66038C8.21801 7.66038 8.91962 7.43578 9.51642 7.01487C10.1132 6.59406 10.5784 5.99583 10.853 5.29594C11.1277 4.59607 11.1996 3.82594 11.0595 3.08296C10.9195 2.33997 10.5739 1.6575 10.0664 1.12184C9.55882 0.586174 8.91217 0.221386 8.20823 0.0736023C7.50429 -0.074192 6.77462 0.00165588 6.11142 0.291555C5.44832 0.581455 4.88151 1.07238 4.4828 1.70225C4.08399 2.33213 3.87119 3.07265 3.87119 3.83019C3.87119 4.84602 4.25354 5.82026 4.93406 6.5386C5.61468 7.25683 6.53771 7.66038 7.50023 7.66038ZM7.50023 1.53208C7.93088 1.53208 8.35185 1.66686 8.70991 1.91938C9.06798 2.1719 9.34707 2.53082 9.51191 2.95074C9.67671 3.37067 9.71983 3.83274 9.63582 4.27853C9.5518 4.72432 9.34446 5.1338 9.03991 5.45521C8.73536 5.77664 8.34739 5.99553 7.92507 6.08418C7.50265 6.17284 7.06484 6.12729 6.667 5.95334C6.26906 5.7794 5.929 5.48483 5.68977 5.10695C5.45055 4.72903 5.3228 4.28472 5.3228 3.83019C5.3228 3.22069 5.55226 2.63616 5.96055 2.20518C6.36894 1.7742 6.92278 1.53208 7.50023 1.53208Z" fill="#4B8B8B"/>
<path d="M0.726008 14.8101C0.917719 14.8074 1.10091 14.7259 1.23649 14.5828C1.37208 14.4397 1.4493 14.2464 1.45182 14.044C1.45182 12.0523 2.47763 10.7245 7.50022 10.7245C12.5228 10.7245 13.5486 12.0523 13.5486 14.044C13.5486 14.2472 13.6251 14.4421 13.7612 14.5857C13.8973 14.7294 14.0819 14.8101 14.2744 14.8101C14.4669 14.8101 14.6515 14.7294 14.7877 14.5857C14.9238 14.4421 15.0002 14.2472 15.0002 14.044C15.0002 9.19244 9.74539 9.19244 7.50022 9.19244C5.25505 9.19244 0.000200272 9.19244 0.000200272 14.044C0.00271606 14.2464 0.0799427 14.4397 0.215524 14.5828C0.351105 14.7259 0.534299 14.8074 0.726008 14.8101Z" fill="#4B8B8B"/>
</svg>
